<svg xmlns="http://www.w3.org/2000/svg" width="229" height="50"><defs><linearGradient id="a" x1="49.294%" x2="49.294%" y1="99.294%" y2=".706%"><stop offset="0%" stop-color="#27973D"/><stop offset="100%" stop-color="#3DBB56"/></linearGradient></defs><g fill="none" fill-rule="evenodd"><path fill="#004DF5" fill-rule="nonzero" d="M65.38 19.859h-4.555v-3.203h12.964v3.203h-4.604v13.668H65.38zm20.474 6.533h-6.206v4.005h6.932v3.13H75.844V16.656h10.387v3.129h-6.583v3.503h6.206zm3.456 3.204a9.637 9.637 0 004.23 1.051c1.753 0 2.678-.726 2.678-1.827 0-1.051-.802-1.651-2.828-2.352-2.803-1.002-4.656-2.554-4.656-5.007 0-2.878 2.428-5.055 6.383-5.055a9.887 9.887 0 014.305.85l-.852 3.054a7.888 7.888 0 00-3.503-.8c-1.651 0-2.453.775-2.453 1.626 0 1.078.926 1.552 3.128 2.378 2.978 1.1 4.356 2.653 4.356 5.03 0 2.83-2.153 5.232-6.784 5.232a10.985 10.985 0 01-4.78-1.052l.776-3.128zm16.671-9.737h-4.557v-3.203h12.965v3.203h-4.604v13.668h-3.804zm14.593 5.833v2.528h-6.559v-2.528zm17.569 7.384a11.212 11.212 0 01-4.305.725c-5.831 0-8.834-3.654-8.834-8.46 0-5.757 4.105-8.935 9.21-8.935a9.581 9.581 0 014.155.75l-.8 3.005a8.029 8.029 0 00-3.204-.626c-3.004 0-5.356 1.827-5.356 5.581 0 3.378 2 5.506 5.38 5.506a9.109 9.109 0 003.203-.55l.551 3.004zm17.223-8.159c0 5.555-3.33 8.884-8.286 8.884-4.98 0-7.934-3.78-7.934-8.61 0-5.056 3.254-8.835 8.21-8.835 5.181 0 8.01 3.878 8.01 8.56zm-12.19.2c0 3.328 1.551 5.656 4.105 5.656 2.578 0 4.054-2.453 4.054-5.733 0-3.052-1.427-5.655-4.054-5.655-2.603 0-4.105 2.452-4.105 5.731zm14.694-8.236a33.339 33.339 0 015.08-.35c2.503 0 4.255.376 5.456 1.326a4.278 4.278 0 011.578 3.554 4.469 4.469 0 01-2.98 4.13v.076c1.177.474 1.829 1.576 2.253 3.128.525 1.927 1.026 4.13 1.352 4.782h-3.904a22.518 22.518 0 01-1.151-3.93c-.476-2.13-1.202-2.68-2.78-2.704h-1.125v6.634h-3.78V16.88zm3.779 7.259h1.5c1.904 0 3.03-.951 3.03-2.428 0-1.527-1.05-2.327-2.805-2.327a7.556 7.556 0 00-1.725.124v4.631zm11.064-7.259a33.339 33.339 0 015.08-.35c2.503 0 4.255.376 5.456 1.326a4.281 4.281 0 011.579 3.554 4.47 4.47 0 01-2.98 4.13v.076c1.175.474 1.827 1.576 2.253 3.128.525 1.927 1.026 4.13 1.35 4.782h-3.904a22.803 22.803 0 01-1.15-3.93c-.475-2.13-1.201-2.68-2.779-2.704h-1.125v6.634h-3.78V16.88zm3.78 7.259h1.5c1.902 0 3.029-.951 3.029-2.428 0-1.527-1.05-2.327-2.804-2.327a7.556 7.556 0 00-1.725.124v4.631zm21.098 2.252h-6.205v4.005h6.932v3.13h-10.736V16.656h10.387v3.129h-6.583v3.503h6.205zm15.695 6.684a11.215 11.215 0 01-4.305.725c-5.83 0-8.835-3.654-8.835-8.46 0-5.757 4.106-8.935 9.21-8.935a9.58 9.58 0 014.156.75l-.8 3.005a8.025 8.025 0 00-3.204-.626c-3.004 0-5.356 1.827-5.356 5.581 0 3.378 2 5.506 5.38 5.506a9.11 9.11 0 003.204-.55l.55 3.004zm6.159-13.217h-4.556v-3.203h12.964v3.203h-4.603v13.668h-3.805z"/><path fill="url(#a)" d="M49.917 24.898A24.956 24.956 0 0134.549 48a24.956 24.956 0 01-27.221-5.377A24.957 24.957 0 0124.971 0c13.747.026 24.893 11.15 24.946 24.898M14.459 37.136c.749.08 1.294.115 1.827.195 3.235.501 5.944 2.084 8.453 4.092a15.238 15.238 0 006.838 3.28c2.427.441 4.645.237 6.733-1.398 6.667-5.211 9.851-11.955 9.184-20.396C46.5 10.293 34.86.883 22.322 2.45A22.664 22.664 0 003.057 30.687a21.753 21.753 0 004.222 8.37c.785-.39 1.591-.735 2.416-1.03.771-.23.93-.609.899-1.392-.09-2.243-.153-4.498-.03-6.74.154-2.79 1.22-5.355 2.354-7.88.694-1.543.179-2.362-1.477-2.437-.61-.026-1.222-.094-1.832-.144-.256-.098-.265-.198-.13-.394.643-.562 1.21-1.267 1.949-1.645a18.697 18.697 0 013.701-1.417 33.333 33.333 0 006.015-2.158c5.338-2.573 10.748-2 15.986.362a8.485 8.485 0 013.096 2.708c.654.894 1.15 1.868 2.208 2.32.384.17.637.594.459.9-.178.307-.621.273-.925.262-.65-.027-1.297-.15-1.945-.23.456.427.949.814 1.471 1.156.31.254.864.601.754.974-.112.371-.91.3-1.261.172-2.858-1.023-5.68-.637-8.546-.008-2.24.492-3.653 1.612-4.31 3.899-.451 1.56-1.914 2.369-3.413 2.8-.673.2-1.466-.027-2.202-.064-.213-.051-.247-.117-.093-.316 1.255-.895 2.12-1.964 1.669-3.706-4.803 2.741-7.594 7.027-9.633 12.087"/></g></svg>